{"title":"Anubis-En de Wraak van Arghus-AC3-5,1-DVDRip-2009","uid":5479560,"size":1470006045,"categoryP":"video","categoryS":"movies","magnet":"?xt=urn:btih:1b2c60e3295d9731987bf3a5e513bc2ce010d8c6&amp;dn=Anubis-En+de+Wraak+van+Arghus-AC3-5%2C1-DVDRip-2009&amp;tr=udp%3A%2F%2Ftracker.openbittorrent.com%3A80&amp;tr=udp%3A%2F%2Fopen.demonii.com%3A1337&amp;tr=udp%3A%2F%2Ftracker.coppersurfer.tk%3A6969&amp;tr=udp%3A%2F%2Fexodus.desync.com%3A6969","seeders":2,"leechers":0,"uploader":"FatFreddy31","files":-1,"time":1270332021,"description":" &lt;a href=&quot;http://www.moviemeter.nl/film/60374&quot; rel=&quot;nofollow&quot; target=&quot;_NEW&quot;&gt;http://www.moviemeter.nl/film/60374&lt;/a&gt;\n &lt;a href=&quot;\nhttp://www.imdb.com/title/tt1581622/&quot; rel=&quot;nofollow&quot; target=&quot;_NEW&quot;&gt;\nhttp://www.imdb.com/title/tt1581622/&lt;/a&gt;\n\nUser Rating:6.8/10 - 10 votes\n\nNederland\nAvontuur / Mystery\n84 minuten\n\nGeregisseerd door Dennis Bots\nMet Loek Beernink, Irris Hesseling en Kevin Wekker\n\nOmdat Appie jarig is, gaan de Anubis bewoners naar een oud landhuis. Tijdens Appie's horrorfeestje slaat de klok twaalf en begint het huis te spoken; de piano speelt uit zichzelf en achter een dichte deur zit een heus spookhuis. Maar als ÃƒÂ©ÃƒÂ©n van hen daarna zoek is, lijkt het even niet meer voor de lol. Maken ze elkaar bang? Of spookt het echt in huis? Nienke denkt dat het te maken heeft met het dagboek dat ze in het huis heeft gevonden. Het is van het eenzame jongetje Arghus dat honderd jaar geleden in het huis woonde. Hij wilde bij een groepje vrienden horen, maar werd door hen verstoten, waarna hij wraak zwoer op hun vriendschap. In en om het huis begint het steeds meer te spoken en geen plek is veilig. De Club van de Oude Wilg gaat op onderzoek uit en komt erachter dat ze het slachtoffer zijn van een duister ritueel. Maar dan raakt Nienke ook de rest van de Club kwijt. Lukt het haar om in haar eentje de anderen te redden? Of gaan ze voor altijd ten onder aan de wraak van Arghus?\n\nInfo:\n\nHoesjes bijgevoegd.\n\nGeneral\nComplete name                    : Anubis-En de Wraak van Arghus-AC3-5,1-DVDRip-2009.avi\nFormat                           : AVI\nFormat/Info                      : Audio Video Interleave\nFile size                        : 1.36 GiB\nDuration                         : 1h 26mn\nOverall bit rate                 : 2 250 Kbps\nWriting application              : VirtualDubMod 1.5.4.1 (build 2178/release)\nWriting library                  : VirtualDubMod build 2178/release\n\nVideo\nID                               : 0\nFormat                           : MPEG-4 Visual\nFormat profile                   : Simple@L3\nFormat settings, BVOP            : No\nFormat settings, QPel            : No\nFormat settings, GMC             : No warppoints\nFormat settings, Matrix          : Default (H.263)\nCodec ID                         : XVID\nCodec ID/Hint                    : XviD\nDuration                         : 1h 26mn\nBit rate                         : 1 792 Kbps\nWidth                            : 640 pixels\nHeight                           : 352 pixels\nDisplay aspect ratio             : 16:9\nFrame rate                       : 25.000 fps\nResolution                       : 24 bits\nColorimetry                      : 4:2:0\nScan type                        : Progressive\nBits/(Pixel*Frame)               : 0.318\nStream size                      : 1.08 GiB (80%)\nWriting library                  : XviD 1.1.2 (UTC 2006-11-01)\n\nAudio\nID                               : 1\nFormat                           : AC-3\nFormat/Info                      : Audio Coding 3\nCodec ID                         : 2000\nDuration                         : 1h 26mn\nBit rate mode                    : Constant\nBit rate                         : 448 Kbps\nChannel(s)                       : 6 channels\nChannel positions                : Front: L C R, Surround: L R, LFE\nSampling rate                    : 48.0 KHz\nStream size                      : 278 MiB (20%)\nAlignment                        : Split accross interleaves\nInterleave, duration             : 40 ms (1.00 video frame)\nInterleave, preload duration     : 500 ms\n\nVeel plezier met deze film.","torrent":{"xt":"urn:btih:1b2c60e3295d9731987bf3a5e513bc2ce010d8c6","amp;dn":"Anubis-En+de+Wraak+van+Arghus-AC3-5%2C1-DVDRip-2009","amp;tr":["udp%3A%2F%2Ftracker.openbittorrent.com%3A80","udp%3A%2F%2Fopen.demonii.com%3A1337","udp%3A%2F%2Ftracker.coppersurfer.tk%3A6969","udp%3A%2F%2Fexodus.desync.com%3A6969"],"infoHash":"1b2c60e3295d9731987bf3a5e513bc2ce010d8c6","infoHashBuffer":{"type":"Buffer","data":[27,44,96,227,41,93,151,49,152,123,243,165,229,19,188,44,224,16,216,198]},"announce":[],"urlList":[]}}